# xmcd CD database file
#
# Track frame offsets:
#	150
#	14951
#	29898
#	43249
#	63405
#	75160
#	92480
#	107314
#	126639
#	141897
#	153143
#	167191
#	178763
#	193441
#
# Disc length: 3021 seconds
#
# Revision: 0
# Processed by: cddbd v1.5.2PL0 Copyright (c) Steve Scherf et al.
# Submitted via: CDex 1.51
#
DISCID=c70bcb0e
DTITLE=Robbie Wiliams - Swing When You're Winning
DYEAR=2001
DGENRE=Jazz
TTITLE0=I Will Talk and Hollywood Will Listen
TTITLE1=Mack the Knife
TTITLE2=Do Nothin' till you hear from me
TTITLE3=It was a Very Good Year
TTITLE4=Straighten up and Fly Right
TTITLE5=Well did you evah?
TTITLE6=Mr. Bojangles
TTITLE7=One for me Baby
TTITLE8=Things
TTITLE9=Ain't that a Kick in the Head
TTITLE10=They can't take that away from me
TTITLE11=Have you met Miss Jones?
TTITLE12=Me and my Shadow
TTITLE13=Beyond the Sea
EXTD=YEAR: 2001
EXTT0=
EXTT1=
EXTT2=
EXTT3=
EXTT4=
EXTT5=
EXTT6=
EXTT7=
EXTT8=
EXTT9=
EXTT10=
EXTT11=
EXTT12=
EXTT13=
PLAYORDER=
